<?xml version="1.0" encoding="UTF-8"?>
<svg width="32" height="32" viewBox="0 0 32 32" fill="none" xmlns="http://www.w3.org/2000/svg">
  <circle cx="16" cy="16" r="16" fill="#9333EA"/>
  <path d="M16 6C10.48 6 6 10.48 6 16C6 21.52 10.48 26 16 26C21.52 26 26 21.52 26 16C26 10.48 21.52 6 16 6ZM16 24C11.58 24 8 20.42 8 16C8 11.58 11.58 8 16 8C20.42 8 24 11.58 24 16C24 20.42 20.42 24 16 24Z" fill="white"/>
  <path d="M16 10C13.24 10 11 12.24 11 15C11 15.55 11.45 16 12 16C12.55 16 13 15.55 13 15C13 13.34 14.34 12 16 12C17.66 12 19 13.34 19 15C19 16.66 17.66 18 16 18C15.45 18 15 18.45 15 19V20C15 20.55 15.45 21 16 21C16.55 21 17 20.55 17 20V19.82C19.16 19.4 20.72 17.37 20.72 15C20.72 12.24 18.76 10 16 10ZM15 22V23C15 23.55 15.45 24 16 24C16.55 24 17 23.55 17 23V22C17 21.45 16.55 21 16 21C15.45 21 15 21.45 15 22Z" fill="white"/>
</svg> 