<?xml version="1.0" encoding="UTF-8"?>
<svg width="32" height="32" viewBox="0 0 32 32" fill="none" xmlns="http://www.w3.org/2000/svg">
  <rect width="32" height="32" rx="8" fill="#8B5CF6"/>
  <path d="M21.4 8C21.2 8 21 8.1 20.8 8.2L16.3 12.7L19.2 15.6L23.7 11.1C23.9 10.9 24 10.7 24 10.5C24 10.3 23.9 10.1 23.7 9.9L22 8.2C21.8 8.1 21.6 8 21.4 8ZM15.5 13.5L9.9 22.8C9.9 22.8 10.6 22.7 10.8 22.9C11 23.1 11.2 23.9 11.2 23.9L20.4 18.3L15.5 13.5ZM8 22L8.5 24L10.5 24.5L8.5 25L8 27L7.5 25L5.5 24.5L7.5 24L8 22Z" fill="white"/>
</svg> 