<?xml version="1.0" encoding="UTF-8"?>
<svg width="32" height="32" viewBox="0 0 32 32" fill="none" xmlns="http://www.w3.org/2000/svg">
  <circle cx="16" cy="16" r="16" fill="#2775CA"/>
  <path d="M16 6C10.48 6 6 10.48 6 16C6 21.52 10.48 26 16 26C21.52 26 26 21.52 26 16C26 10.48 21.52 6 16 6ZM16.8 20.5V22H15.2V20.5C13.395 20.32 12 19.32 12 18C12 17.445 12.445 17 13 17C13.555 17 14 17.445 14 18C14 18.645 15.1 19.25 16.8 19.25C18.5 19.25 19.2 18.48 19.2 17.8C19.2 17.02 18.55 16.55 16.6 16.22C14.2 15.82 12.4 14.95 12.4 13C12.4 11.67 13.46 10.5 15.2 10.19V8.5H16.8V10.19C18.54 10.5 19.6 11.67 19.6 13C19.6 13.555 19.155 14 18.6 14C18.045 14 17.6 13.555 17.6 13C17.6 12.45 16.85 11.95 15.2 11.95C13.55 11.95 12.8 12.55 12.8 13C12.8 13.52 13.3 14.07 15.3 14.4C17.3 14.73 20 15.33 20 17.8C20 19.3 18.85 20.22 16.8 20.5Z" fill="white"/>
</svg> 